<svg width="101" height="30" viewBox="0 0 101 30" fill="none" xmlns="http://www.w3.org/2000/svg">
<g clip-path="url(#clip0_1_2)">
<path d="M0 20.2905C0 14.8993 4.03101 10.5277 9.87458 10.5277C12.9587 10.5277 15.0959 11.4664 16.8004 13.4779L14.1222 15.7847C12.9861 14.6046 11.5791 14.0145 9.87487 14.0145C6.22268 14.0145 3.92298 16.8577 3.92298 20.2908C3.92298 23.724 6.22267 26.5134 9.95611 26.5134C11.7957 26.5134 13.1756 25.8965 14.2847 24.6896L17.0442 27.0229C15.6104 28.7394 13.1753 30 9.87487 30C4.24736 30 0 25.6549 0 20.2905Z" fill="#0A1B46"/>
<path d="M17.1221 22.7044C17.1221 18.6812 20.1791 15.3554 24.3997 15.3554C28.6202 15.3554 31.5419 18.6812 31.5419 22.7044C31.5419 23.1068 31.5148 23.5358 31.4336 23.9919H20.9097C21.3156 25.6281 22.56 26.7813 24.3997 26.7813C25.9688 26.7813 27.1862 25.9768 27.8355 24.9038L30.6762 27.0226C29.5401 28.7659 27.1862 29.9997 24.3997 29.9997C20.044 29.9997 17.1221 26.7276 17.1221 22.7044ZM27.8626 21.283C27.4567 19.7273 26.1313 18.4667 24.3455 18.4667C22.5597 18.4667 21.3156 19.62 20.9097 21.283H27.8626Z" fill="#0A1B46"/>
<path d="M32.9624 10.0716H36.6146V29.6513H32.9624V10.0716Z" fill="#0A1B46"/>
<path d="M38.7002 10.0716H42.3524V29.6513H38.7002V10.0716Z" fill="#0A1B46"/>
<path d="M44.3548 24.2332V15.7041H48.007V23.3482C48.007 25.762 49.008 26.8082 50.8206 26.8082C52.3626 26.8082 53.7425 25.762 53.7425 23.3482V15.7041H57.3947V29.6513H53.8505V27.5593C53.1742 29.1686 51.9026 29.9732 49.7112 29.9732C46.6813 29.9732 44.3545 27.7469 44.3545 24.2335L44.3548 24.2332Z" fill="#0A1B46"/>
<path d="M59.5078 10.0716H63.16V29.6513H59.5078V10.0716Z" fill="#0A1B46"/>
<path d="M64.6128 22.7044C64.6128 18.6812 67.7511 15.3823 72.1067 15.3823C76.4624 15.3823 79.6007 18.6812 79.6007 22.7044C79.6007 26.7276 76.4624 29.9997 72.1067 29.9997C67.7511 29.9997 64.6128 26.7276 64.6128 22.7044ZM72.1067 26.7008C74.4332 26.7008 75.9485 24.877 75.9485 22.7044C75.9485 20.5319 74.4335 18.6812 72.1067 18.6812C69.78 18.6812 68.265 20.5319 68.265 22.7044C68.265 24.877 69.78 26.7008 72.1067 26.7008Z" fill="#0A1B46"/>
<path d="M82.7954 10.2861C84.0669 10.2861 84.9868 11.2517 84.9868 12.4049C84.9868 13.5582 84.0669 14.5506 82.7954 14.5506C81.5238 14.5506 80.604 13.585 80.604 12.4049C80.604 11.2248 81.5509 10.2861 82.7954 10.2861ZM80.9828 15.7041H84.635V29.6513H80.9828V15.7041Z" fill="#0A1B46"/>
<path d="M85.958 22.7313C85.958 18.7081 89.0421 15.4091 92.911 15.4091C95.3187 15.4091 96.5902 16.3747 97.3479 17.8498V10.0716H101V29.6513H97.4559V27.3714C96.6983 28.9539 95.427 30 92.911 30C89.0421 30 85.958 26.7545 85.958 22.7315V22.7313ZM93.5061 26.7276C95.9138 26.7276 97.4559 24.9038 97.4559 22.7313C97.4559 20.5587 95.9138 18.6812 93.5061 18.6812C91.0984 18.6812 89.6102 20.5319 89.6102 22.7044C89.6102 24.877 91.1793 26.7276 93.5061 26.7276Z" fill="#0A1B46"/>
<path d="M82.8643 4.36507V6.77323C86.0679 6.77323 88.6652 9.34817 88.6652 12.5243H91.0942C91.0942 8.01814 87.4095 4.36507 82.8643 4.36507Z" fill="url(#paint0_radial_1_2)"/>
<path d="M82.8641 0.05055V2.50697C88.4446 2.50697 92.9682 6.99199 92.9682 12.5243H95.446C95.446 5.63512 89.8127 0.0502644 82.8638 0.0502644L82.8641 0.05055Z" fill="url(#paint1_radial_1_2)"/>
<g opacity="0.15">
<path d="M82.8643 4.36507V6.77323C86.0679 6.77323 88.6652 9.34817 88.6652 12.5243H91.0942C91.0942 8.01814 87.4095 4.36507 82.8643 4.36507Z" fill="black"/>
<path d="M82.8641 0.05055V2.50697C88.4446 2.50697 92.9682 6.99199 92.9682 12.5243H95.446C95.446 5.63512 89.8127 0.0502644 82.8638 0.0502644L82.8641 0.05055Z" fill="black"/>
</g>
</g>
<defs>
<radialGradient id="paint0_radial_1_2" cx="0" cy="0" r="1" gradientUnits="userSpaceOnUse" gradientTransform="translate(91.8455 1.26262) scale(10.2211 10.1333)">
<stop offset="0.18" stop-color="#00B3F0"/>
<stop offset="0.92" stop-color="#0058E4"/>
</radialGradient>
<radialGradient id="paint1_radial_1_2" cx="0" cy="0" r="1" gradientUnits="userSpaceOnUse" gradientTransform="translate(91.8453 1.26262) scale(10.2211 10.1333)">
<stop offset="0.18" stop-color="#00B3F0"/>
<stop offset="0.92" stop-color="#0058E4"/>
</radialGradient>
<clipPath id="clip0_1_2">
<rect width="101" height="30" fill="white"/>
</clipPath>
</defs>
</svg>
